{
    "asset" : {
        "generator" : "Khronos glTF Blender I/O v1.5.17",
        "version" : "2.0"
    },
    "extensionsUsed" : [
        "KHR_materials_transmission"
    ],
    "scene" : 0,
    "scenes" : [
        {
            "name" : "Scene",
            "nodes" : [
                6
            ]
        }
    ],
    "nodes" : [
        {
            "mesh" : 0,
            "name" : "body"
        },
        {
            "mesh" : 1,
            "name" : "wheel_backLeft",
            "scale" : [
                -1,
                1,
                1
            ],
            "translation" : [
                -0.3499999940395355,
                0.30000001192092896,
                0.7599999904632568
            ]
        },
        {
            "mesh" : 1,
            "name" : "wheel_backRight",
            "translation" : [
                0.3499999940395355,
                0.30000001192092896,
                0.7599999904632568
            ]
        },
        {
            "mesh" : 1,
            "name" : "wheel_frontLeft",
            "scale" : [
                -1,
                1,
                1
            ],
            "translation" : [
                -0.3499999940395355,
                0.30000001192092896,
                -0.8600000143051147
            ]
        },
        {
            "mesh" : 1,
            "name" : "wheel_frontRight",
            "translation" : [
                0.3499999940395355,
                0.30000001192092896,
                -0.8600000143051147
            ]
        },
        {
            "children" : [
                0,
                1,
                2,
                3,
                4
            ],
            "name" : "truck"
        },
        {
            "children" : [
                5
            ],
            "name" : "tmpParent",
            "rotation" : [
                0,
                -1,
                0,
                4.371138828673793e-08
            ]
        }
    ],
    "materials" : [
        {
            "name" : "plastic",
            "pbrMetallicRoughness" : {
                "baseColorFactor" : [
                    0.08353149890899658,
                    0.08353149890899658,
                    0.08353149890899658,
                    1
                ],
                "metallicFactor" : 0
            }
        },
        {
            "name" : "paintGreen",
            "pbrMetallicRoughness" : {
                "baseColorFactor" : [
                    0.05838794633746147,
                    0.1901777684688568,
                    0.11694343388080597,
                    1
                ],
                "metallicFactor" : 0,
                "roughnessFactor" : 0.7941176295280457
            }
        },
        {
            "emissiveFactor" : [
                1,
                1,
                1
            ],
            "extensions" : {
                "KHR_materials_transmission" : {
                    "transmissionFactor" : 1
                }
            },
            "name" : "lightFront",
            "pbrMetallicRoughness" : {
                "baseColorFactor" : [
                    1,
                    0.9762833118438721,
                    0.9292452931404114,
                    1
                ],
                "metallicFactor" : 0
            }
        },
        {
            "name" : "_defaultMat",
            "pbrMetallicRoughness" : {
                "baseColorFactor" : [
                    0.2882961630821228,
                    0.2882961630821228,
                    0.2882961630821228,
                    1
                ],
                "roughnessFactor" : 0.6029411554336548
            }
        },
        {
            "name" : "window",
            "pbrMetallicRoughness" : {
                "baseColorFactor" : [
                    0.3532009422779083,
                    0.8066426515579224,
                    0.9372550845146179,
                    1
                ],
                "metallicFactor" : 0,
                "roughnessFactor" : 0
            }
        },
        {
            "emissiveFactor" : [
                1,
                0.34670406579971313,
                0.22696588933467865
            ],
            "name" : "lightBack",
            "pbrMetallicRoughness" : {
                "baseColorFactor" : [
                    1,
                    0.3490196168422699,
                    0.22745098173618317,
                    1
                ],
                "metallicFactor" : 0
            }
        },
        {
            "name" : "carTire.002",
            "pbrMetallicRoughness" : {
                "baseColorFactor" : [
                    0.239215686917305,
                    0.239215686917305,
                    0.239215686917305,
                    1
                ]
            }
        },
        {
            "name" : "_defaultMat.002",
            "pbrMetallicRoughness" : {}
        }
    ],
    "meshes" : [
        {
            "name" : "Mesh body.002",
            "primitives" : [
                {
                    "attributes" : {
                        "POSITION" : 0,
                        "NORMAL" : 1,
                        "TEXCOORD_0" : 2
                    },
                    "indices" : 3,
                    "material" : 0
                },
                {
                    "attributes" : {
                        "POSITION" : 4,
                        "NORMAL" : 5,
                        "TEXCOORD_0" : 6
                    },
                    "indices" : 7,
                    "material" : 1
                },
                {
                    "attributes" : {
                        "POSITION" : 8,
                        "NORMAL" : 9,
                        "TEXCOORD_0" : 10
                    },
                    "indices" : 11,
                    "material" : 2
                },
                {
                    "attributes" : {
                        "POSITION" : 12,
                        "NORMAL" : 13,
                        "TEXCOORD_0" : 14
                    },
                    "indices" : 15,
                    "material" : 3
                },
                {
                    "attributes" : {
                        "POSITION" : 16,
                        "NORMAL" : 17,
                        "TEXCOORD_0" : 18
                    },
                    "indices" : 19,
                    "material" : 4
                },
                {
                    "attributes" : {
                        "POSITION" : 20,
                        "NORMAL" : 21,
                        "TEXCOORD_0" : 22
                    },
                    "indices" : 23,
                    "material" : 5
                }
            ]
        },
        {
            "name" : "Mesh wheel_frontLeft.002",
            "primitives" : [
                {
                    "attributes" : {
                        "POSITION" : 24,
                        "NORMAL" : 25,
                        "TEXCOORD_0" : 26
                    },
                    "indices" : 27,
                    "material" : 6
                },
                {
                    "attributes" : {
                        "POSITION" : 28,
                        "NORMAL" : 29,
                        "TEXCOORD_0" : 30
                    },
                    "indices" : 31,
                    "material" : 7
                }
            ]
        }
    ],
    "accessors" : [
        {
            "bufferView" : 0,
            "componentType" : 5126,
            "count" : 1527,
            "max" : [
                0.6499999761581421,
                0.800000011920929,
                1.4500000476837158
            ],
            "min" : [
                -0.6499999761581421,
                0.20000000298023224,
                -1.4500000476837158
            ],
            "type" : "VEC3"
        },
        {
            "bufferView" : 1,
            "componentType" : 5126,
            "count" : 1527,
            "type" : "VEC3"
        },
        {
            "bufferView" : 2,
            "componentType" : 5126,
            "count" : 1527,
            "type" : "VEC2"
        },
        {
            "bufferView" : 3,
            "componentType" : 5123,
            "count" : 1980,
            "type" : "SCALAR"
        },
        {
            "bufferView" : 4,
            "componentType" : 5126,
            "count" : 316,
            "max" : [
                0.75,
                1.3000000715255737,
                1.4500000476837158
            ],
            "min" : [
                -0.75,
                0.5,
                -1.350000023841858
            ],
            "type" : "VEC3"
        },
        {
            "bufferView" : 5,
            "componentType" : 5126,
            "count" : 316,
            "type" : "VEC3"
        },
        {
            "bufferView" : 6,
            "componentType" : 5126,
            "count" : 316,
            "type" : "VEC2"
        },
        {
            "bufferView" : 7,
            "componentType" : 5123,
            "count" : 426,
            "type" : "SCALAR"
        },
        {
            "bufferView" : 8,
            "componentType" : 5126,
            "count" : 8,
            "max" : [
                0.550000011920929,
                0.699999988079071,
                -1.350000023841858
            ],
            "min" : [
                -0.550000011920929,
                0.5,
                -1.350000023841858
            ],
            "type" : "VEC3"
        },
        {
            "bufferView" : 9,
            "componentType" : 5126,
            "count" : 8,
            "type" : "VEC3"
        },
        {
            "bufferView" : 10,
            "componentType" : 5126,
            "count" : 8,
            "type" : "VEC2"
        },
        {
            "bufferView" : 11,
            "componentType" : 5123,
            "count" : 12,
            "type" : "SCALAR"
        },
        {
            "bufferView" : 12,
            "componentType" : 5126,
            "count" : 12,
            "max" : [
                0.75,
                0.800000011920929,
                -0.5229021906852722
            ],
            "min" : [
                -0.75,
                0.699999988079071,
                -0.5229021906852722
            ],
            "type" : "VEC3"
        },
        {
            "bufferView" : 13,
            "componentType" : 5126,
            "count" : 12,
            "type" : "VEC3"
        },
        {
            "bufferView" : 14,
            "componentType" : 5126,
            "count" : 12,
            "type" : "VEC2"
        },
        {
            "bufferView" : 15,
            "componentType" : 5123,
            "count" : 12,
            "type" : "SCALAR"
        },
        {
            "bufferView" : 16,
            "componentType" : 5126,
            "count" : 30,
            "max" : [
                0.550000011920929,
                1.2219130992889404,
                0.21286092698574066
            ],
            "min" : [
                -0.550000011920929,
                0.800000011920929,
                -0.75
            ],
            "type" : "VEC3"
        },
        {
            "bufferView" : 17,
            "componentType" : 5126,
            "count" : 30,
            "type" : "VEC3"
        },
        {
            "bufferView" : 18,
            "componentType" : 5126,
            "count" : 30,
            "type" : "VEC2"
        },
        {
            "bufferView" : 19,
            "componentType" : 5123,
            "count" : 30,
            "type" : "SCALAR"
        },
        {
            "bufferView" : 20,
            "componentType" : 5126,
            "count" : 8,
            "max" : [
                0.550000011920929,
                0.699999988079071,
                1.4500000476837158
            ],
            "min" : [
                -0.550000011920929,
                0.6000000238418579,
                1.4500000476837158
            ],
            "type" : "VEC3"
        },
        {
            "bufferView" : 21,
            "componentType" : 5126,
            "count" : 8,
            "type" : "VEC3"
        },
        {
            "bufferView" : 22,
            "componentType" : 5126,
            "count" : 8,
            "type" : "VEC2"
        },
        {
            "bufferView" : 23,
            "componentType" : 5123,
            "count" : 12,
            "type" : "SCALAR"
        },
        {
            "bufferView" : 24,
            "componentType" : 5126,
            "count" : 327,
            "max" : [
                0.30000001192092896,
                0.30000001192092896,
                0.30000001192092896
            ],
            "min" : [
                0,
                -0.30000001192092896,
                -0.30000001192092896
            ],
            "type" : "VEC3"
        },
        {
            "bufferView" : 25,
            "componentType" : 5126,
            "count" : 327,
            "type" : "VEC3"
        },
        {
            "bufferView" : 26,
            "componentType" : 5126,
            "count" : 327,
            "type" : "VEC2"
        },
        {
            "bufferView" : 27,
            "componentType" : 5123,
            "count" : 498,
            "type" : "SCALAR"
        },
        {
            "bufferView" : 28,
            "componentType" : 5126,
            "count" : 354,
            "max" : [
                0.30000001192092896,
                0.18136820197105408,
                0.18136820197105408
            ],
            "min" : [
                0.25,
                -0.18136820197105408,
                -0.18136820197105408
            ],
            "type" : "VEC3"
        },
        {
            "bufferView" : 29,
            "componentType" : 5126,
            "count" : 354,
            "type" : "VEC3"
        },
        {
            "bufferView" : 30,
            "componentType" : 5126,
            "count" : 354,
            "type" : "VEC2"
        },
        {
            "bufferView" : 31,
            "componentType" : 5123,
            "count" : 354,
            "type" : "SCALAR"
        }
    ],
    "bufferViews" : [
        {
            "buffer" : 0,
            "byteLength" : 18324,
            "byteOffset" : 0
        },
        {
            "buffer" : 0,
            "byteLength" : 18324,
            "byteOffset" : 18324
        },
        {
            "buffer" : 0,
            "byteLength" : 12216,
            "byteOffset" : 36648
        },
        {
            "buffer" : 0,
            "byteLength" : 3960,
            "byteOffset" : 48864
        },
        {
            "buffer" : 0,
            "byteLength" : 3792,
            "byteOffset" : 52824
        },
        {
            "buffer" : 0,
            "byteLength" : 3792,
            "byteOffset" : 56616
        },
        {
            "buffer" : 0,
            "byteLength" : 2528,
            "byteOffset" : 60408
        },
        {
            "buffer" : 0,
            "byteLength" : 852,
            "byteOffset" : 62936
        },
        {
            "buffer" : 0,
            "byteLength" : 96,
            "byteOffset" : 63788
        },
        {
            "buffer" : 0,
            "byteLength" : 96,
            "byteOffset" : 63884
        },
        {
            "buffer" : 0,
            "byteLength" : 64,
            "byteOffset" : 63980
        },
        {
            "buffer" : 0,
            "byteLength" : 24,
            "byteOffset" : 64044
        },
        {
            "buffer" : 0,
            "byteLength" : 144,
            "byteOffset" : 64068
        },
        {
            "buffer" : 0,
            "byteLength" : 144,
            "byteOffset" : 64212
        },
        {
            "buffer" : 0,
            "byteLength" : 96,
            "byteOffset" : 64356
        },
        {
            "buffer" : 0,
            "byteLength" : 24,
            "byteOffset" : 64452
        },
        {
            "buffer" : 0,
            "byteLength" : 360,
            "byteOffset" : 64476
        },
        {
            "buffer" : 0,
            "byteLength" : 360,
            "byteOffset" : 64836
        },
        {
            "buffer" : 0,
            "byteLength" : 240,
            "byteOffset" : 65196
        },
        {
            "buffer" : 0,
            "byteLength" : 60,
            "byteOffset" : 65436
        },
        {
            "buffer" : 0,
            "byteLength" : 96,
            "byteOffset" : 65496
        },
        {
            "buffer" : 0,
            "byteLength" : 96,
            "byteOffset" : 65592
        },
        {
            "buffer" : 0,
            "byteLength" : 64,
            "byteOffset" : 65688
        },
        {
            "buffer" : 0,
            "byteLength" : 24,
            "byteOffset" : 65752
        },
        {
            "buffer" : 0,
            "byteLength" : 3924,
            "byteOffset" : 65776
        },
        {
            "buffer" : 0,
            "byteLength" : 3924,
            "byteOffset" : 69700
        },
        {
            "buffer" : 0,
            "byteLength" : 2616,
            "byteOffset" : 73624
        },
        {
            "buffer" : 0,
            "byteLength" : 996,
            "byteOffset" : 76240
        },
        {
            "buffer" : 0,
            "byteLength" : 4248,
            "byteOffset" : 77236
        },
        {
            "buffer" : 0,
            "byteLength" : 4248,
            "byteOffset" : 81484
        },
        {
            "buffer" : 0,
            "byteLength" : 2832,
            "byteOffset" : 85732
        },
        {
            "buffer" : 0,
            "byteLength" : 708,
            "byteOffset" : 88564
        }
    ],
    "buffers" : [
        {
            "byteLength" : 89272,
            "uri" : "data:application/octet-stream;base64,"
        }
    ]
}
