{
    "asset" : {
        "generator" : "Khronos glTF Blender I/O v1.5.17",
        "version" : "2.0"
    },
    "scene" : 0,
    "scenes" : [
        {
            "name" : "Scene",
            "nodes" : [
                0,
                1,
                2,
                3,
                4,
                5,
                6
            ]
        }
    ],
    "nodes" : [
        {
            "mesh" : 0,
            "name" : "Cushion"
        },
        {
            "mesh" : 1,
            "name" : "Ear Cup"
        },
        {
            "mesh" : 2,
            "name" : "EarCup"
        },
        {
            "name" : "For Mirror"
        },
        {
            "mesh" : 3,
            "name" : "Mid-"
        },
        {
            "mesh" : 4,
            "name" : "Seprator"
        },
        {
            "mesh" : 5,
            "name" : "Seprator.001"
        }
    ],
    "materials" : [
        {
            "doubleSided" : true,
            "name" : "Cushion",
            "pbrMetallicRoughness" : {
                "baseColorFactor" : [
                    0.03302822634577751,
                    0.03302822634577751,
                    0.03302822634577751,
                    1
                ],
                "metallicFactor" : 0
            }
        },
        {
            "doubleSided" : true,
            "name" : "Black-1",
            "pbrMetallicRoughness" : {
                "baseColorFactor" : [
                    0,
                    0,
                    0,
                    1
                ],
                "metallicFactor" : 0,
                "roughnessFactor" : 0.3669235110282898
            }
        },
        {
            "doubleSided" : true,
            "emissiveFactor" : [
                0,
                1,
                1
            ],
            "name" : "GlowBlue",
            "pbrMetallicRoughness" : {}
        },
        {
            "doubleSided" : true,
            "name" : "Black-2",
            "pbrMetallicRoughness" : {
                "baseColorFactor" : [
                    0.004255374427884817,
                    0.004255374427884817,
                    0.004255374427884817,
                    1
                ],
                "metallicFactor" : 0,
                "roughnessFactor" : 0.5827814340591431
            }
        },
        {
            "doubleSided" : true,
            "name" : "Connector",
            "pbrMetallicRoughness" : {
                "baseColorFactor" : [
                    0,
                    0,
                    0,
                    1
                ],
                "metallicFactor" : 0,
                "roughnessFactor" : 0.13576160371303558
            }
        }
    ],
    "meshes" : [
        {
            "name" : "Cylinder.027",
            "primitives" : [
                {
                    "attributes" : {
                        "POSITION" : 0,
                        "NORMAL" : 1,
                        "TEXCOORD_0" : 2
                    },
                    "indices" : 3,
                    "material" : 0
                }
            ]
        },
        {
            "name" : "Cylinder.026",
            "primitives" : [
                {
                    "attributes" : {
                        "POSITION" : 4,
                        "NORMAL" : 5,
                        "TEXCOORD_0" : 6
                    },
                    "indices" : 7,
                    "material" : 1
                }
            ]
        },
        {
            "name" : "Cylinder.025",
            "primitives" : [
                {
                    "attributes" : {
                        "POSITION" : 8,
                        "NORMAL" : 9,
                        "TEXCOORD_0" : 10
                    },
                    "indices" : 11,
                    "material" : 1
                },
                {
                    "attributes" : {
                        "POSITION" : 12,
                        "NORMAL" : 13,
                        "TEXCOORD_0" : 14
                    },
                    "indices" : 15,
                    "material" : 2
                }
            ]
        },
        {
            "name" : "Cylinder.024",
            "primitives" : [
                {
                    "attributes" : {
                        "POSITION" : 16,
                        "NORMAL" : 17,
                        "TEXCOORD_0" : 18
                    },
                    "indices" : 19,
                    "material" : 3
                }
            ]
        },
        {
            "name" : "Cylinder.023",
            "primitives" : [
                {
                    "attributes" : {
                        "POSITION" : 20,
                        "NORMAL" : 21,
                        "TEXCOORD_0" : 22
                    },
                    "indices" : 23,
                    "material" : 4
                }
            ]
        },
        {
            "name" : "Cylinder.022",
            "primitives" : [
                {
                    "attributes" : {
                        "POSITION" : 24,
                        "NORMAL" : 25,
                        "TEXCOORD_0" : 26
                    },
                    "indices" : 27,
                    "material" : 1
                }
            ]
        }
    ],
    "accessors" : [
        {
            "bufferView" : 0,
            "componentType" : 5126,
            "count" : 8984,
            "max" : [
                0.7469290494918823,
                1.3075346946716309,
                1.1138643026351929
            ],
            "min" : [
                -0.7469289898872375,
                0.2987511157989502,
                -0.04033464193344116
            ],
            "type" : "VEC3"
        },
        {
            "bufferView" : 1,
            "componentType" : 5126,
            "count" : 8984,
            "type" : "VEC3"
        },
        {
            "bufferView" : 2,
            "componentType" : 5126,
            "count" : 8984,
            "type" : "VEC2"
        },
        {
            "bufferView" : 3,
            "componentType" : 5123,
            "count" : 46080,
            "type" : "SCALAR"
        },
        {
            "bufferView" : 4,
            "componentType" : 5126,
            "count" : 9689,
            "max" : [
                0.9712080955505371,
                1.2111170291900635,
                1.136799931526184
            ],
            "min" : [
                -0.9712081551551819,
                0.1658579558134079,
                -0.06305266916751862
            ],
            "type" : "VEC3"
        },
        {
            "bufferView" : 5,
            "componentType" : 5126,
            "count" : 9689,
            "type" : "VEC3"
        },
        {
            "bufferView" : 6,
            "componentType" : 5126,
            "count" : 9689,
            "type" : "VEC2"
        },
        {
            "bufferView" : 7,
            "componentType" : 5123,
            "count" : 48000,
            "type" : "SCALAR"
        },
        {
            "bufferView" : 8,
            "componentType" : 5126,
            "count" : 25430,
            "max" : [
                1.143748164176941,
                2.618687391281128,
                0.9182660579681396
            ],
            "min" : [
                -1.1437482833862305,
                0.23574627935886383,
                0.16462090611457825
            ],
            "type" : "VEC3"
        },
        {
            "bufferView" : 9,
            "componentType" : 5126,
            "count" : 25430,
            "type" : "VEC3"
        },
        {
            "bufferView" : 10,
            "componentType" : 5126,
            "count" : 25430,
            "type" : "VEC2"
        },
        {
            "bufferView" : 11,
            "componentType" : 5123,
            "count" : 141792,
            "type" : "SCALAR"
        },
        {
            "bufferView" : 12,
            "componentType" : 5126,
            "count" : 480,
            "max" : [
                0.9751399159431458,
                0.6696977019309998,
                0.6847801804542542
            ],
            "min" : [
                -0.9751399159431458,
                0.41655057668685913,
                0.39810770750045776
            ],
            "type" : "VEC3"
        },
        {
            "bufferView" : 13,
            "componentType" : 5126,
            "count" : 480,
            "type" : "VEC3"
        },
        {
            "bufferView" : 14,
            "componentType" : 5126,
            "count" : 480,
            "type" : "VEC2"
        },
        {
            "bufferView" : 15,
            "componentType" : 5123,
            "count" : 2304,
            "type" : "SCALAR"
        },
        {
            "bufferView" : 16,
            "componentType" : 5126,
            "count" : 11732,
            "max" : [
                0.9581953287124634,
                1.3105659484863281,
                1.1390316486358643
            ],
            "min" : [
                -0.9581953883171082,
                0.16482670605182648,
                -0.06537067890167236
            ],
            "type" : "VEC3"
        },
        {
            "bufferView" : 17,
            "componentType" : 5126,
            "count" : 11732,
            "type" : "VEC3"
        },
        {
            "bufferView" : 18,
            "componentType" : 5126,
            "count" : 11732,
            "type" : "VEC2"
        },
        {
            "bufferView" : 19,
            "componentType" : 5123,
            "count" : 59136,
            "type" : "SCALAR"
        },
        {
            "bufferView" : 20,
            "componentType" : 5126,
            "count" : 7108,
            "max" : [
                1.1322358846664429,
                1.8304098844528198,
                0.7418590188026428
            ],
            "min" : [
                -1.1322358846664429,
                1.644331693649292,
                0.3577744960784912
            ],
            "type" : "VEC3"
        },
        {
            "bufferView" : 21,
            "componentType" : 5126,
            "count" : 7108,
            "type" : "VEC3"
        },
        {
            "bufferView" : 22,
            "componentType" : 5126,
            "count" : 7108,
            "type" : "VEC2"
        },
        {
            "bufferView" : 23,
            "componentType" : 5123,
            "count" : 42624,
            "type" : "SCALAR"
        },
        {
            "bufferView" : 24,
            "componentType" : 5126,
            "count" : 4820,
            "max" : [
                1.0816490650177002,
                1.775693416595459,
                0.6713958382606506
            ],
            "min" : [
                -1.0816490650177002,
                1.6577701568603516,
                0.456797331571579
            ],
            "type" : "VEC3"
        },
        {
            "bufferView" : 25,
            "componentType" : 5126,
            "count" : 4820,
            "type" : "VEC3"
        },
        {
            "bufferView" : 26,
            "componentType" : 5126,
            "count" : 4820,
            "type" : "VEC2"
        },
        {
            "bufferView" : 27,
            "componentType" : 5123,
            "count" : 28896,
            "type" : "SCALAR"
        }
    ],
    "bufferViews" : [
        {
            "buffer" : 0,
            "byteLength" : 107808,
            "byteOffset" : 0
        },
        {
            "buffer" : 0,
            "byteLength" : 107808,
            "byteOffset" : 107808
        },
        {
            "buffer" : 0,
            "byteLength" : 71872,
            "byteOffset" : 215616
        },
        {
            "buffer" : 0,
            "byteLength" : 92160,
            "byteOffset" : 287488
        },
        {
            "buffer" : 0,
            "byteLength" : 116268,
            "byteOffset" : 379648
        },
        {
            "buffer" : 0,
            "byteLength" : 116268,
            "byteOffset" : 495916
        },
        {
            "buffer" : 0,
            "byteLength" : 77512,
            "byteOffset" : 612184
        },
        {
            "buffer" : 0,
            "byteLength" : 96000,
            "byteOffset" : 689696
        },
        {
            "buffer" : 0,
            "byteLength" : 305160,
            "byteOffset" : 785696
        },
        {
            "buffer" : 0,
            "byteLength" : 305160,
            "byteOffset" : 1090856
        },
        {
            "buffer" : 0,
            "byteLength" : 203440,
            "byteOffset" : 1396016
        },
        {
            "buffer" : 0,
            "byteLength" : 283584,
            "byteOffset" : 1599456
        },
        {
            "buffer" : 0,
            "byteLength" : 5760,
            "byteOffset" : 1883040
        },
        {
            "buffer" : 0,
            "byteLength" : 5760,
            "byteOffset" : 1888800
        },
        {
            "buffer" : 0,
            "byteLength" : 3840,
            "byteOffset" : 1894560
        },
        {
            "buffer" : 0,
            "byteLength" : 4608,
            "byteOffset" : 1898400
        },
        {
            "buffer" : 0,
            "byteLength" : 140784,
            "byteOffset" : 1903008
        },
        {
            "buffer" : 0,
            "byteLength" : 140784,
            "byteOffset" : 2043792
        },
        {
            "buffer" : 0,
            "byteLength" : 93856,
            "byteOffset" : 2184576
        },
        {
            "buffer" : 0,
            "byteLength" : 118272,
            "byteOffset" : 2278432
        },
        {
            "buffer" : 0,
            "byteLength" : 85296,
            "byteOffset" : 2396704
        },
        {
            "buffer" : 0,
            "byteLength" : 85296,
            "byteOffset" : 2482000
        },
        {
            "buffer" : 0,
            "byteLength" : 56864,
            "byteOffset" : 2567296
        },
        {
            "buffer" : 0,
            "byteLength" : 85248,
            "byteOffset" : 2624160
        },
        {
            "buffer" : 0,
            "byteLength" : 57840,
            "byteOffset" : 2709408
        },
        {
            "buffer" : 0,
            "byteLength" : 57840,
            "byteOffset" : 2767248
        },
        {
            "buffer" : 0,
            "byteLength" : 38560,
            "byteOffset" : 2825088
        },
        {
            "buffer" : 0,
            "byteLength" : 57792,
            "byteOffset" : 2863648
        }
    ],
    "buffers" : [
        {
            "byteLength" : 2921440,
            "uri" : "data:application/octet-stream;base64,"
        }
    ]
}
