{
    "asset" : {
        "generator" : "Khronos glTF Blender I/O v1.3.48",
        "version" : "2.0"
    },
    "scene" : 0,
    "scenes" : [
        {
            "name" : "Scene",
            "nodes" : [
                0,
                1,
                2
            ]
        }
    ],
    "nodes" : [
        {
            "mesh" : 0,
            "name" : "Case",
            "translation" : [
                0.5915743708610535,
                0,
                0
            ]
        },
        {
            "mesh" : 1,
            "name" : "Keyboard cable",
            "translation" : [
                0.5915743708610535,
                0,
                0
            ]
        },
        {
            "mesh" : 2,
            "name" : "Keycaps",
            "translation" : [
                0.5915743708610535,
                0,
                0
            ]
        }
    ],
    "materials" : [
        {
            "doubleSided" : true,
            "emissiveFactor" : [
                0,
                0,
                0
            ],
            "name" : "Black rubber",
            "pbrMetallicRoughness" : {
                "baseColorFactor" : [
                    0.007199297659099102,
                    0.007199297659099102,
                    0.007199297659099102,
                    1
                ],
                "metallicFactor" : 0,
                "roughnessFactor" : 0.7613636255264282
            }
        },
        {
            "doubleSided" : true,
            "emissiveFactor" : [
                0,
                0,
                0
            ],
            "name" : "Keycap material",
            "pbrMetallicRoughness" : {
                "baseColorFactor" : [
                    0.6940382122993469,
                    0.7320910096168518,
                    0.8000000715255737,
                    1
                ],
                "metallicFactor" : 0,
                "roughnessFactor" : 0.28715214133262634
            }
        }
    ],
    "meshes" : [
        {
            "name" : "Cube",
            "primitives" : [
                {
                    "attributes" : {
                        "POSITION" : 0,
                        "NORMAL" : 1
                    },
                    "indices" : 2,
                    "material" : 0
                }
            ]
        },
        {
            "name" : "Cylinder",
            "primitives" : [
                {
                    "attributes" : {
                        "POSITION" : 3,
                        "NORMAL" : 4
                    },
                    "indices" : 5,
                    "material" : 0
                }
            ]
        },
        {
            "name" : "Obj_000001.009",
            "primitives" : [
                {
                    "attributes" : {
                        "POSITION" : 6,
                        "NORMAL" : 7,
                        "TEXCOORD_0" : 8,
                        "TEXCOORD_1" : 9
                    },
                    "indices" : 10,
                    "material" : 1
                }
            ]
        }
    ],
    "accessors" : [
        {
            "bufferView" : 0,
            "componentType" : 5126,
            "count" : 6966,
            "max" : [
                1.1418771743774414,
                0.37559974193573,
                1.7867659330368042
            ],
            "min" : [
                -2.098501205444336,
                0.15974359214305878,
                0.5209103226661682
            ],
            "type" : "VEC3"
        },
        {
            "bufferView" : 1,
            "componentType" : 5126,
            "count" : 6966,
            "type" : "VEC3"
        },
        {
            "bufferView" : 2,
            "componentType" : 5123,
            "count" : 10398,
            "type" : "SCALAR"
        },
        {
            "bufferView" : 3,
            "componentType" : 5126,
            "count" : 4848,
            "max" : [
                0.7597934007644653,
                0.23982304334640503,
                0.5746557116508484
            ],
            "min" : [
                -0.22873617708683014,
                0.15977931022644043,
                -1.0473806858062744
            ],
            "type" : "VEC3"
        },
        {
            "bufferView" : 4,
            "componentType" : 5126,
            "count" : 4848,
            "type" : "VEC3"
        },
        {
            "bufferView" : 5,
            "componentType" : 5123,
            "count" : 41718,
            "type" : "SCALAR"
        },
        {
            "bufferView" : 6,
            "componentType" : 5126,
            "count" : 58714,
            "max" : [
                1.103005051612854,
                0.4449845254421234,
                1.709634780883789
            ],
            "min" : [
                -2.049546957015991,
                0.2962171137332916,
                0.5978055596351624
            ],
            "type" : "VEC3"
        },
        {
            "bufferView" : 7,
            "componentType" : 5126,
            "count" : 58714,
            "type" : "VEC3"
        },
        {
            "bufferView" : 8,
            "componentType" : 5126,
            "count" : 58714,
            "type" : "VEC2"
        },
        {
            "bufferView" : 9,
            "componentType" : 5126,
            "count" : 58714,
            "type" : "VEC2"
        },
        {
            "bufferView" : 10,
            "componentType" : 5123,
            "count" : 163530,
            "type" : "SCALAR"
        }
    ],
    "bufferViews" : [
        {
            "buffer" : 0,
            "byteLength" : 83592,
            "byteOffset" : 0
        },
        {
            "buffer" : 0,
            "byteLength" : 83592,
            "byteOffset" : 83592
        },
        {
            "buffer" : 0,
            "byteLength" : 20796,
            "byteOffset" : 167184
        },
        {
            "buffer" : 0,
            "byteLength" : 58176,
            "byteOffset" : 187980
        },
        {
            "buffer" : 0,
            "byteLength" : 58176,
            "byteOffset" : 246156
        },
        {
            "buffer" : 0,
            "byteLength" : 83436,
            "byteOffset" : 304332
        },
        {
            "buffer" : 0,
            "byteLength" : 704568,
            "byteOffset" : 387768
        },
        {
            "buffer" : 0,
            "byteLength" : 704568,
            "byteOffset" : 1092336
        },
        {
            "buffer" : 0,
            "byteLength" : 469712,
            "byteOffset" : 1796904
        },
        {
            "buffer" : 0,
            "byteLength" : 469712,
            "byteOffset" : 2266616
        },
        {
            "buffer" : 0,
            "byteLength" : 327060,
            "byteOffset" : 2736328
        }
    ],
    "buffers" : [
        {
            "byteLength" : 3063388,
            "uri" : "data:application/octet-stream;base64,"
        }
    ]
}
