{
    "asset" : {
        "generator" : "Khronos glTF Blender I/O v1.5.17",
        "version" : "2.0"
    },
    "scene" : 0,
    "scenes" : [
        {
            "name" : "Scene",
            "nodes" : [
                0,
                1,
                2,
                3,
                4
            ]
        }
    ],
    "nodes" : [
        {
            "name" : "Light",
            "rotation" : [
                0.16907575726509094,
                0.7558803558349609,
                -0.27217137813568115,
                0.570947527885437
            ],
            "translation" : [
                4.076245307922363,
                5.903861999511719,
                -1.0054539442062378
            ]
        },
        {
            "name" : "Camera",
            "rotation" : [
                0.4871049225330353,
                0.3231990933418274,
                -0.20023296773433685,
                0.7862429022789001
            ],
            "translation" : [
                0.2321537286043167,
                0.14012061059474945,
                0.22541147470474243
            ]
        },
        {
            "mesh" : 0,
            "name" : "Cylinder",
            "rotation" : [
                -0.9999939203262329,
                0,
                0,
                0.003490754868835211
            ],
            "scale" : [
                0.8451874256134033,
                0.8451874256134033,
                -0.8451874256134033
            ]
        },
        {
            "mesh" : 1,
            "name" : "Cube",
            "rotation" : [
                0.9999996423721313,
                0,
                0,
                0.0008728065877221525
            ],
            "scale" : [
                -0.004866804927587509,
                -0.01269438024610281,
                0.018285412341356277
            ],
            "translation" : [
                -0.010442543774843216,
                0.0001612584455870092,
                0
            ]
        },
        {
            "mesh" : 2,
            "name" : "Cube.001",
            "rotation" : [
                0.0037687437143176794,
                -0.001745254616253078,
                -0.9999914765357971,
                -6.577473413926782e-06
            ],
            "scale" : [
                -0.004866803530603647,
                -0.011782717891037464,
                0.018285376951098442
            ],
            "translation" : [
                0.010129932314157486,
                -0.0006545457290485501,
                0
            ]
        }
    ],
    "materials" : [
        {
            "doubleSided" : true,
            "name" : "Alga",
            "pbrMetallicRoughness" : {
                "baseColorFactor" : [
                    0,
                    0.09462588280439377,
                    0.0026123402640223503,
                    1
                ],
                "metallicFactor" : 0,
                "roughnessFactor" : 0.5
            }
        },
        {
            "doubleSided" : true,
            "name" : "Rice",
            "pbrMetallicRoughness" : {
                "baseColorFactor" : [
                    0.800000011920929,
                    0.800000011920929,
                    0.800000011920929,
                    1
                ],
                "metallicFactor" : 0,
                "roughnessFactor" : 0.5
            }
        },
        {
            "doubleSided" : true,
            "name" : "Salmon",
            "pbrMetallicRoughness" : {
                "baseColorFactor" : [
                    1,
                    0.24314284324645996,
                    0.10817578434944153,
                    1
                ],
                "metallicFactor" : 0,
                "roughnessFactor" : 0.3382352888584137
            }
        },
        {
            "doubleSided" : true,
            "name" : "Avocado",
            "pbrMetallicRoughness" : {
                "baseColorFactor" : [
                    0.14702732861042023,
                    0.3662526607513428,
                    0.0012141279876232147,
                    1
                ],
                "metallicFactor" : 0,
                "roughnessFactor" : 0.5
            }
        }
    ],
    "meshes" : [
        {
            "name" : "Cylinder",
            "primitives" : [
                {
                    "attributes" : {
                        "POSITION" : 0,
                        "NORMAL" : 1,
                        "TEXCOORD_0" : 2
                    },
                    "indices" : 3,
                    "material" : 0
                },
                {
                    "attributes" : {
                        "POSITION" : 4,
                        "NORMAL" : 5,
                        "TEXCOORD_0" : 6
                    },
                    "indices" : 7,
                    "material" : 1
                }
            ]
        },
        {
            "name" : "Cube.001",
            "primitives" : [
                {
                    "attributes" : {
                        "POSITION" : 8,
                        "NORMAL" : 9,
                        "TEXCOORD_0" : 10
                    },
                    "indices" : 11,
                    "material" : 2
                }
            ]
        },
        {
            "name" : "Cube.002",
            "primitives" : [
                {
                    "attributes" : {
                        "POSITION" : 12,
                        "NORMAL" : 13,
                        "TEXCOORD_0" : 14
                    },
                    "indices" : 11,
                    "material" : 3
                }
            ]
        }
    ],
    "accessors" : [
        {
            "bufferView" : 0,
            "componentType" : 5126,
            "count" : 204,
            "max" : [
                0.04281225800514221,
                0.014999999664723873,
                0.04281225800514221
            ],
            "min" : [
                -0.04281225800514221,
                -0.014999999664723873,
                -0.04281225800514221
            ],
            "type" : "VEC3"
        },
        {
            "bufferView" : 1,
            "componentType" : 5126,
            "count" : 204,
            "type" : "VEC3"
        },
        {
            "bufferView" : 2,
            "componentType" : 5126,
            "count" : 204,
            "type" : "VEC2"
        },
        {
            "bufferView" : 3,
            "componentType" : 5123,
            "count" : 342,
            "type" : "SCALAR"
        },
        {
            "bufferView" : 4,
            "componentType" : 5126,
            "count" : 68,
            "max" : [
                0.04281225800514221,
                0.014999999664723873,
                0.04281225800514221
            ],
            "min" : [
                -0.04281225800514221,
                -0.014999999664723873,
                -0.04281225800514221
            ],
            "type" : "VEC3"
        },
        {
            "bufferView" : 5,
            "componentType" : 5126,
            "count" : 68,
            "type" : "VEC3"
        },
        {
            "bufferView" : 6,
            "componentType" : 5126,
            "count" : 68,
            "type" : "VEC2"
        },
        {
            "bufferView" : 7,
            "componentType" : 5123,
            "count" : 138,
            "type" : "SCALAR"
        },
        {
            "bufferView" : 8,
            "componentType" : 5126,
            "count" : 34,
            "max" : [
                2.8247838020324707,
                1,
                1.2035319805145264
            ],
            "min" : [
                -1.9121100902557373,
                -1,
                -1.2039623260498047
            ],
            "type" : "VEC3"
        },
        {
            "bufferView" : 9,
            "componentType" : 5126,
            "count" : 34,
            "type" : "VEC3"
        },
        {
            "bufferView" : 10,
            "componentType" : 5126,
            "count" : 34,
            "type" : "VEC2"
        },
        {
            "bufferView" : 11,
            "componentType" : 5123,
            "count" : 60,
            "type" : "SCALAR"
        },
        {
            "bufferView" : 12,
            "componentType" : 5126,
            "count" : 34,
            "max" : [
                2.8247838020324707,
                1,
                1.2035319805145264
            ],
            "min" : [
                -1.9121100902557373,
                -1,
                -1.2039623260498047
            ],
            "type" : "VEC3"
        },
        {
            "bufferView" : 13,
            "componentType" : 5126,
            "count" : 34,
            "type" : "VEC3"
        },
        {
            "bufferView" : 14,
            "componentType" : 5126,
            "count" : 34,
            "type" : "VEC2"
        }
    ],
    "bufferViews" : [
        {
            "buffer" : 0,
            "byteLength" : 2448,
            "byteOffset" : 0
        },
        {
            "buffer" : 0,
            "byteLength" : 2448,
            "byteOffset" : 2448
        },
        {
            "buffer" : 0,
            "byteLength" : 1632,
            "byteOffset" : 4896
        },
        {
            "buffer" : 0,
            "byteLength" : 684,
            "byteOffset" : 6528
        },
        {
            "buffer" : 0,
            "byteLength" : 816,
            "byteOffset" : 7212
        },
        {
            "buffer" : 0,
            "byteLength" : 816,
            "byteOffset" : 8028
        },
        {
            "buffer" : 0,
            "byteLength" : 544,
            "byteOffset" : 8844
        },
        {
            "buffer" : 0,
            "byteLength" : 276,
            "byteOffset" : 9388
        },
        {
            "buffer" : 0,
            "byteLength" : 408,
            "byteOffset" : 9664
        },
        {
            "buffer" : 0,
            "byteLength" : 408,
            "byteOffset" : 10072
        },
        {
            "buffer" : 0,
            "byteLength" : 272,
            "byteOffset" : 10480
        },
        {
            "buffer" : 0,
            "byteLength" : 120,
            "byteOffset" : 10752
        },
        {
            "buffer" : 0,
            "byteLength" : 408,
            "byteOffset" : 10872
        },
        {
            "buffer" : 0,
            "byteLength" : 408,
            "byteOffset" : 11280
        },
        {
            "buffer" : 0,
            "byteLength" : 272,
            "byteOffset" : 11688
        }
    ],
    "buffers" : [
        {
            "byteLength" : 11960,
            "uri" : "data:application/octet-stream;base64,"
        }
    ]
}
