{
    "asset" : {
        "generator" : "Khronos glTF Blender I/O v1.5.17",
        "version" : "2.0"
    },
    "extensionsUsed" : [
        "KHR_materials_transmission"
    ],
    "scene" : 0,
    "scenes" : [
        {
            "name" : "Scene",
            "nodes" : [
                6
            ]
        }
    ],
    "nodes" : [
        {
            "mesh" : 0,
            "name" : "body",
            "translation" : [
                0,
                0.20000000298023224,
                -0.12255716323852539
            ]
        },
        {
            "mesh" : 1,
            "name" : "wheel_backLeft",
            "scale" : [
                -1,
                1,
                1
            ],
            "translation" : [
                -0.3499999940395355,
                0.30000001192092896,
                0.6374428272247314
            ]
        },
        {
            "mesh" : 1,
            "name" : "wheel_backRight",
            "rotation" : [
                0,
                -1,
                0,
                -4.371138828673793e-08
            ],
            "scale" : [
                -1,
                1,
                1
            ],
            "translation" : [
                0.3499999940395355,
                0.30000001192092896,
                0.6374428272247314
            ]
        },
        {
            "mesh" : 1,
            "name" : "wheel_frontLeft",
            "scale" : [
                -1,
                1,
                1
            ],
            "translation" : [
                -0.3499999940395355,
                0.30000001192092896,
                -0.7825571894645691
            ]
        },
        {
            "mesh" : 1,
            "name" : "wheel_frontRight",
            "rotation" : [
                0,
                -1,
                0,
                -4.371138828673793e-08
            ],
            "scale" : [
                -1,
                1,
                1
            ],
            "translation" : [
                0.3499999940395355,
                0.30000001192092896,
                -0.7825571894645691
            ]
        },
        {
            "children" : [
                0,
                1,
                2,
                3,
                4
            ],
            "name" : "truckFlat"
        },
        {
            "children" : [
                5
            ],
            "name" : "tmpParent",
            "rotation" : [
                0,
                -1,
                0,
                4.371138828673793e-08
            ]
        }
    ],
    "materials" : [
        {
            "name" : "plastic",
            "pbrMetallicRoughness" : {
                "baseColorFactor" : [
                    0.08353149890899658,
                    0.08353149890899658,
                    0.08353149890899658,
                    1
                ],
                "metallicFactor" : 0
            }
        },
        {
            "name" : "window",
            "pbrMetallicRoughness" : {
                "baseColorFactor" : [
                    0.3532009422779083,
                    0.8066426515579224,
                    0.9372550845146179,
                    1
                ],
                "metallicFactor" : 0,
                "roughnessFactor" : 0
            }
        },
        {
            "emissiveFactor" : [
                1,
                0.34670406579971313,
                0.22696588933467865
            ],
            "name" : "lightBack",
            "pbrMetallicRoughness" : {
                "baseColorFactor" : [
                    1,
                    0.3490196168422699,
                    0.22745098173618317,
                    1
                ],
                "metallicFactor" : 0
            }
        },
        {
            "name" : "paintWhite",
            "pbrMetallicRoughness" : {
                "baseColorFactor" : [
                    0.4802469313144684,
                    0.48436984419822693,
                    0.5173332095146179,
                    1
                ],
                "metallicFactor" : 0
            }
        },
        {
            "emissiveFactor" : [
                1,
                1,
                1
            ],
            "extensions" : {
                "KHR_materials_transmission" : {
                    "transmissionFactor" : 1
                }
            },
            "name" : "lightFront",
            "pbrMetallicRoughness" : {
                "baseColorFactor" : [
                    1,
                    0.9762833118438721,
                    0.9292452931404114,
                    1
                ],
                "metallicFactor" : 0
            }
        },
        {
            "name" : "_defaultMat",
            "pbrMetallicRoughness" : {
                "baseColorFactor" : [
                    0.2882961630821228,
                    0.2882961630821228,
                    0.2882961630821228,
                    1
                ],
                "roughnessFactor" : 0.6029411554336548
            }
        },
        {
            "name" : "carTire.001",
            "pbrMetallicRoughness" : {
                "baseColorFactor" : [
                    0.239215686917305,
                    0.239215686917305,
                    0.239215686917305,
                    1
                ]
            }
        },
        {
            "name" : "_defaultMat.001",
            "pbrMetallicRoughness" : {}
        },
        {
            "name" : "plastic.001",
            "pbrMetallicRoughness" : {
                "baseColorFactor" : [
                    0.3764705955982208,
                    0.3764705955982208,
                    0.3764705955982208,
                    1
                ]
            }
        }
    ],
    "meshes" : [
        {
            "name" : "Mesh body.001",
            "primitives" : [
                {
                    "attributes" : {
                        "POSITION" : 0,
                        "NORMAL" : 1,
                        "TEXCOORD_0" : 2
                    },
                    "indices" : 3,
                    "material" : 0
                },
                {
                    "attributes" : {
                        "POSITION" : 4,
                        "NORMAL" : 5,
                        "TEXCOORD_0" : 6
                    },
                    "indices" : 7,
                    "material" : 1
                },
                {
                    "attributes" : {
                        "POSITION" : 8,
                        "NORMAL" : 9,
                        "TEXCOORD_0" : 10
                    },
                    "indices" : 11,
                    "material" : 2
                },
                {
                    "attributes" : {
                        "POSITION" : 12,
                        "NORMAL" : 13,
                        "TEXCOORD_0" : 14
                    },
                    "indices" : 15,
                    "material" : 3
                },
                {
                    "attributes" : {
                        "POSITION" : 16,
                        "NORMAL" : 17,
                        "TEXCOORD_0" : 18
                    },
                    "indices" : 19,
                    "material" : 4
                },
                {
                    "attributes" : {
                        "POSITION" : 20,
                        "NORMAL" : 21,
                        "TEXCOORD_0" : 22
                    },
                    "indices" : 23,
                    "material" : 5
                }
            ]
        },
        {
            "name" : "Mesh wheel_frontLeft.001",
            "primitives" : [
                {
                    "attributes" : {
                        "POSITION" : 24,
                        "NORMAL" : 25,
                        "TEXCOORD_0" : 26
                    },
                    "indices" : 27,
                    "material" : 6
                },
                {
                    "attributes" : {
                        "POSITION" : 28,
                        "NORMAL" : 29,
                        "TEXCOORD_0" : 30
                    },
                    "indices" : 31,
                    "material" : 7
                },
                {
                    "attributes" : {
                        "POSITION" : 32,
                        "NORMAL" : 33,
                        "TEXCOORD_0" : 34
                    },
                    "indices" : 35,
                    "material" : 8
                }
            ]
        }
    ],
    "accessors" : [
        {
            "bufferView" : 0,
            "componentType" : 5126,
            "count" : 1496,
            "max" : [
                0.6499999761581421,
                0.6000000238418579,
                1.445114254951477
            ],
            "min" : [
                -0.6499999761581421,
                0,
                -1.25
            ],
            "type" : "VEC3"
        },
        {
            "bufferView" : 1,
            "componentType" : 5126,
            "count" : 1496,
            "type" : "VEC3"
        },
        {
            "bufferView" : 2,
            "componentType" : 5126,
            "count" : 1496,
            "type" : "VEC2"
        },
        {
            "bufferView" : 3,
            "componentType" : 5123,
            "count" : 1980,
            "type" : "SCALAR"
        },
        {
            "bufferView" : 4,
            "componentType" : 5126,
            "count" : 16,
            "max" : [
                0.550000011920929,
                1.0219130516052246,
                -0.15977133810520172
            ],
            "min" : [
                -0.550000011920929,
                0.6000000238418579,
                -0.8499999642372131
            ],
            "type" : "VEC3"
        },
        {
            "bufferView" : 5,
            "componentType" : 5126,
            "count" : 16,
            "type" : "VEC3"
        },
        {
            "bufferView" : 6,
            "componentType" : 5126,
            "count" : 16,
            "type" : "VEC2"
        },
        {
            "bufferView" : 7,
            "componentType" : 5123,
            "count" : 18,
            "type" : "SCALAR"
        },
        {
            "bufferView" : 8,
            "componentType" : 5126,
            "count" : 12,
            "max" : [
                0.550000011920929,
                0.5,
                1.445114254951477
            ],
            "min" : [
                -0.550000011920929,
                0.4000000059604645,
                1.445114254951477
            ],
            "type" : "VEC3"
        },
        {
            "bufferView" : 9,
            "componentType" : 5126,
            "count" : 12,
            "type" : "VEC3"
        },
        {
            "bufferView" : 10,
            "componentType" : 5126,
            "count" : 12,
            "type" : "VEC2"
        },
        {
            "bufferView" : 11,
            "componentType" : 5123,
            "count" : 12,
            "type" : "SCALAR"
        },
        {
            "bufferView" : 12,
            "componentType" : 5126,
            "count" : 362,
            "max" : [
                0.75,
                1.100000023841858,
                1.4951143264770508
            ],
            "min" : [
                -0.75,
                0.30000001192092896,
                -1.149999976158142
            ],
            "type" : "VEC3"
        },
        {
            "bufferView" : 13,
            "componentType" : 5126,
            "count" : 362,
            "type" : "VEC3"
        },
        {
            "bufferView" : 14,
            "componentType" : 5126,
            "count" : 362,
            "type" : "VEC2"
        },
        {
            "bufferView" : 15,
            "componentType" : 5123,
            "count" : 474,
            "type" : "SCALAR"
        },
        {
            "bufferView" : 16,
            "componentType" : 5126,
            "count" : 8,
            "max" : [
                0.550000011920929,
                0.4000000059604645,
                -1.149999976158142
            ],
            "min" : [
                -0.550000011920929,
                0.30000001192092896,
                -1.149999976158142
            ],
            "type" : "VEC3"
        },
        {
            "bufferView" : 17,
            "componentType" : 5126,
            "count" : 8,
            "type" : "VEC3"
        },
        {
            "bufferView" : 18,
            "componentType" : 5126,
            "count" : 8,
            "type" : "VEC2"
        },
        {
            "bufferView" : 19,
            "componentType" : 5123,
            "count" : 12,
            "type" : "SCALAR"
        },
        {
            "bufferView" : 20,
            "componentType" : 5126,
            "count" : 52,
            "max" : [
                0.75,
                0.6000000238418579,
                0.04511433094739914
            ],
            "min" : [
                -0.75,
                0.5,
                -0.8499999642372131
            ],
            "type" : "VEC3"
        },
        {
            "bufferView" : 21,
            "componentType" : 5126,
            "count" : 52,
            "type" : "VEC3"
        },
        {
            "bufferView" : 22,
            "componentType" : 5126,
            "count" : 52,
            "type" : "VEC2"
        },
        {
            "bufferView" : 23,
            "componentType" : 5123,
            "count" : 54,
            "type" : "SCALAR"
        },
        {
            "bufferView" : 24,
            "componentType" : 5126,
            "count" : 381,
            "max" : [
                0.30000001192092896,
                0.30000001192092896,
                0.30000001192092896
            ],
            "min" : [
                0.05000000074505806,
                -0.30000001192092896,
                -0.30000001192092896
            ],
            "type" : "VEC3"
        },
        {
            "bufferView" : 25,
            "componentType" : 5126,
            "count" : 381,
            "type" : "VEC3"
        },
        {
            "bufferView" : 26,
            "componentType" : 5126,
            "count" : 381,
            "type" : "VEC2"
        },
        {
            "bufferView" : 27,
            "componentType" : 5123,
            "count" : 498,
            "type" : "SCALAR"
        },
        {
            "bufferView" : 28,
            "componentType" : 5126,
            "count" : 428,
            "max" : [
                0.30000001192092896,
                0.154327854514122,
                0.154327854514122
            ],
            "min" : [
                0.25,
                -0.154327854514122,
                -0.154327854514122
            ],
            "type" : "VEC3"
        },
        {
            "bufferView" : 29,
            "componentType" : 5126,
            "count" : 428,
            "type" : "VEC3"
        },
        {
            "bufferView" : 30,
            "componentType" : 5126,
            "count" : 428,
            "type" : "VEC2"
        },
        {
            "bufferView" : 31,
            "componentType" : 5123,
            "count" : 432,
            "type" : "SCALAR"
        },
        {
            "bufferView" : 32,
            "componentType" : 5126,
            "count" : 159,
            "max" : [
                0.30000001192092896,
                0.06024445220828056,
                0.06024445220828056
            ],
            "min" : [
                0.25,
                -0.06024445220828056,
                -0.06024445220828056
            ],
            "type" : "VEC3"
        },
        {
            "bufferView" : 33,
            "componentType" : 5126,
            "count" : 159,
            "type" : "VEC3"
        },
        {
            "bufferView" : 34,
            "componentType" : 5126,
            "count" : 159,
            "type" : "VEC2"
        },
        {
            "bufferView" : 35,
            "componentType" : 5123,
            "count" : 210,
            "type" : "SCALAR"
        }
    ],
    "bufferViews" : [
        {
            "buffer" : 0,
            "byteLength" : 17952,
            "byteOffset" : 0
        },
        {
            "buffer" : 0,
            "byteLength" : 17952,
            "byteOffset" : 17952
        },
        {
            "buffer" : 0,
            "byteLength" : 11968,
            "byteOffset" : 35904
        },
        {
            "buffer" : 0,
            "byteLength" : 3960,
            "byteOffset" : 47872
        },
        {
            "buffer" : 0,
            "byteLength" : 192,
            "byteOffset" : 51832
        },
        {
            "buffer" : 0,
            "byteLength" : 192,
            "byteOffset" : 52024
        },
        {
            "buffer" : 0,
            "byteLength" : 128,
            "byteOffset" : 52216
        },
        {
            "buffer" : 0,
            "byteLength" : 36,
            "byteOffset" : 52344
        },
        {
            "buffer" : 0,
            "byteLength" : 144,
            "byteOffset" : 52380
        },
        {
            "buffer" : 0,
            "byteLength" : 144,
            "byteOffset" : 52524
        },
        {
            "buffer" : 0,
            "byteLength" : 96,
            "byteOffset" : 52668
        },
        {
            "buffer" : 0,
            "byteLength" : 24,
            "byteOffset" : 52764
        },
        {
            "buffer" : 0,
            "byteLength" : 4344,
            "byteOffset" : 52788
        },
        {
            "buffer" : 0,
            "byteLength" : 4344,
            "byteOffset" : 57132
        },
        {
            "buffer" : 0,
            "byteLength" : 2896,
            "byteOffset" : 61476
        },
        {
            "buffer" : 0,
            "byteLength" : 948,
            "byteOffset" : 64372
        },
        {
            "buffer" : 0,
            "byteLength" : 96,
            "byteOffset" : 65320
        },
        {
            "buffer" : 0,
            "byteLength" : 96,
            "byteOffset" : 65416
        },
        {
            "buffer" : 0,
            "byteLength" : 64,
            "byteOffset" : 65512
        },
        {
            "buffer" : 0,
            "byteLength" : 24,
            "byteOffset" : 65576
        },
        {
            "buffer" : 0,
            "byteLength" : 624,
            "byteOffset" : 65600
        },
        {
            "buffer" : 0,
            "byteLength" : 624,
            "byteOffset" : 66224
        },
        {
            "buffer" : 0,
            "byteLength" : 416,
            "byteOffset" : 66848
        },
        {
            "buffer" : 0,
            "byteLength" : 108,
            "byteOffset" : 67264
        },
        {
            "buffer" : 0,
            "byteLength" : 4572,
            "byteOffset" : 67372
        },
        {
            "buffer" : 0,
            "byteLength" : 4572,
            "byteOffset" : 71944
        },
        {
            "buffer" : 0,
            "byteLength" : 3048,
            "byteOffset" : 76516
        },
        {
            "buffer" : 0,
            "byteLength" : 996,
            "byteOffset" : 79564
        },
        {
            "buffer" : 0,
            "byteLength" : 5136,
            "byteOffset" : 80560
        },
        {
            "buffer" : 0,
            "byteLength" : 5136,
            "byteOffset" : 85696
        },
        {
            "buffer" : 0,
            "byteLength" : 3424,
            "byteOffset" : 90832
        },
        {
            "buffer" : 0,
            "byteLength" : 864,
            "byteOffset" : 94256
        },
        {
            "buffer" : 0,
            "byteLength" : 1908,
            "byteOffset" : 95120
        },
        {
            "buffer" : 0,
            "byteLength" : 1908,
            "byteOffset" : 97028
        },
        {
            "buffer" : 0,
            "byteLength" : 1272,
            "byteOffset" : 98936
        },
        {
            "buffer" : 0,
            "byteLength" : 420,
            "byteOffset" : 100208
        }
    ],
    "buffers" : [
        {
            "byteLength" : 100628,
            "uri" : "data:application/octet-stream;base64,"
        }
    ]
}
