{
    "asset" : {
        "generator" : "Khronos glTF Blender I/O v1.5.17",
        "version" : "2.0"
    },
    "scene" : 0,
    "scenes" : [
        {
            "name" : "Scene",
            "nodes" : [
                1
            ]
        }
    ],
    "nodes" : [
        {
            "mesh" : 0,
            "name" : "blasterA"
        },
        {
            "children" : [
                0
            ],
            "name" : "tmpParent",
            "rotation" : [
                0,
                0.7071068286895752,
                0,
                0.7071068286895752
            ],
            "scale" : [
                3.056964635848999,
                3.056964635848999,
                3.056964635848999
            ],
            "translation" : [
                0.3109350800514221,
                1.2069613933563232,
                -0.10559556633234024
            ]
        }
    ],
    "materials" : [
        {
            "name" : "metal",
            "pbrMetallicRoughness" : {
                "baseColorFactor" : [
                    0.7960784435272217,
                    0.8156862854957581,
                    0.8784313797950745,
                    1
                ],
                "roughnessFactor" : 0.1985294222831726
            }
        },
        {
            "name" : "dark",
            "pbrMetallicRoughness" : {
                "baseColorFactor" : [
                    0.1568627506494522,
                    0.19607843458652496,
                    0.239215686917305,
                    1
                ],
                "metallicFactor" : 0,
                "roughnessFactor" : 0.7720588445663452
            }
        },
        {
            "name" : "darkMetal",
            "pbrMetallicRoughness" : {
                "baseColorFactor" : [
                    0.5921568870544434,
                    0.6352941393852234,
                    0.7686274647712708,
                    1
                ],
                "roughnessFactor" : 0.11764705926179886
            }
        },
        {
            "name" : "purple",
            "pbrMetallicRoughness" : {
                "baseColorFactor" : [
                    0.09373167902231216,
                    0.06921383738517761,
                    0.14240044355392456,
                    1
                ],
                "metallicFactor" : 0
            }
        }
    ],
    "meshes" : [
        {
            "name" : "Mesh blasterA",
            "primitives" : [
                {
                    "attributes" : {
                        "POSITION" : 0,
                        "NORMAL" : 1,
                        "TEXCOORD_0" : 2
                    },
                    "indices" : 3,
                    "material" : 0
                },
                {
                    "attributes" : {
                        "POSITION" : 4,
                        "NORMAL" : 5,
                        "TEXCOORD_0" : 6
                    },
                    "indices" : 7,
                    "material" : 1
                },
                {
                    "attributes" : {
                        "POSITION" : 8,
                        "NORMAL" : 9,
                        "TEXCOORD_0" : 10
                    },
                    "indices" : 11,
                    "material" : 2
                },
                {
                    "attributes" : {
                        "POSITION" : 12,
                        "NORMAL" : 13,
                        "TEXCOORD_0" : 14
                    },
                    "indices" : 15,
                    "material" : 3
                }
            ]
        }
    ],
    "accessors" : [
        {
            "bufferView" : 0,
            "componentType" : 5126,
            "count" : 305,
            "max" : [
                -0.08000000566244125,
                0.20795084536075592,
                0.2600000202655792
            ],
            "min" : [
                -0.2199999988079071,
                -0.08795084804296494,
                -0.5600000619888306
            ],
            "type" : "VEC3"
        },
        {
            "bufferView" : 1,
            "componentType" : 5126,
            "count" : 305,
            "type" : "VEC3"
        },
        {
            "bufferView" : 2,
            "componentType" : 5126,
            "count" : 305,
            "type" : "VEC2"
        },
        {
            "bufferView" : 3,
            "componentType" : 5123,
            "count" : 420,
            "type" : "SCALAR"
        },
        {
            "bufferView" : 4,
            "componentType" : 5126,
            "count" : 133,
            "max" : [
                -0.10000000894069672,
                0.1420491486787796,
                0.2600000202655792
            ],
            "min" : [
                -0.20000000298023224,
                -0.18795084953308105,
                -0.39499998092651367
            ],
            "type" : "VEC3"
        },
        {
            "bufferView" : 5,
            "componentType" : 5126,
            "count" : 133,
            "type" : "VEC3"
        },
        {
            "bufferView" : 6,
            "componentType" : 5126,
            "count" : 133,
            "type" : "VEC2"
        },
        {
            "bufferView" : 7,
            "componentType" : 5123,
            "count" : 192,
            "type" : "SCALAR"
        },
        {
            "bufferView" : 8,
            "componentType" : 5126,
            "count" : 200,
            "max" : [
                -0.10000000894069672,
                0.20795084536075592,
                0.2600000202655792
            ],
            "min" : [
                -0.20000000298023224,
                -0.20795084536075592,
                -0.32999998331069946
            ],
            "type" : "VEC3"
        },
        {
            "bufferView" : 9,
            "componentType" : 5126,
            "count" : 200,
            "type" : "VEC3"
        },
        {
            "bufferView" : 10,
            "componentType" : 5126,
            "count" : 200,
            "type" : "VEC2"
        },
        {
            "bufferView" : 11,
            "componentType" : 5123,
            "count" : 294,
            "type" : "SCALAR"
        },
        {
            "bufferView" : 12,
            "componentType" : 5126,
            "count" : 165,
            "max" : [
                -0.08000000566244125,
                0.16204914450645447,
                0.06499999761581421
            ],
            "min" : [
                -0.2199999988079071,
                -0.08795084804296494,
                -0.5600000619888306
            ],
            "type" : "VEC3"
        },
        {
            "bufferView" : 13,
            "componentType" : 5126,
            "count" : 165,
            "type" : "VEC3"
        },
        {
            "bufferView" : 14,
            "componentType" : 5126,
            "count" : 165,
            "type" : "VEC2"
        },
        {
            "bufferView" : 15,
            "componentType" : 5123,
            "count" : 240,
            "type" : "SCALAR"
        }
    ],
    "bufferViews" : [
        {
            "buffer" : 0,
            "byteLength" : 3660,
            "byteOffset" : 0
        },
        {
            "buffer" : 0,
            "byteLength" : 3660,
            "byteOffset" : 3660
        },
        {
            "buffer" : 0,
            "byteLength" : 2440,
            "byteOffset" : 7320
        },
        {
            "buffer" : 0,
            "byteLength" : 840,
            "byteOffset" : 9760
        },
        {
            "buffer" : 0,
            "byteLength" : 1596,
            "byteOffset" : 10600
        },
        {
            "buffer" : 0,
            "byteLength" : 1596,
            "byteOffset" : 12196
        },
        {
            "buffer" : 0,
            "byteLength" : 1064,
            "byteOffset" : 13792
        },
        {
            "buffer" : 0,
            "byteLength" : 384,
            "byteOffset" : 14856
        },
        {
            "buffer" : 0,
            "byteLength" : 2400,
            "byteOffset" : 15240
        },
        {
            "buffer" : 0,
            "byteLength" : 2400,
            "byteOffset" : 17640
        },
        {
            "buffer" : 0,
            "byteLength" : 1600,
            "byteOffset" : 20040
        },
        {
            "buffer" : 0,
            "byteLength" : 588,
            "byteOffset" : 21640
        },
        {
            "buffer" : 0,
            "byteLength" : 1980,
            "byteOffset" : 22228
        },
        {
            "buffer" : 0,
            "byteLength" : 1980,
            "byteOffset" : 24208
        },
        {
            "buffer" : 0,
            "byteLength" : 1320,
            "byteOffset" : 26188
        },
        {
            "buffer" : 0,
            "byteLength" : 480,
            "byteOffset" : 27508
        }
    ],
    "buffers" : [
        {
            "byteLength" : 27988,
            "uri" : "data:application/octet-stream;base64,"
        }
    ]
}
