{
    "asset" : {
        "generator" : "Khronos glTF Blender I/O v1.5.17",
        "version" : "2.0"
    },
    "extensionsUsed" : [
        "KHR_materials_transmission"
    ],
    "scene" : 0,
    "scenes" : [
        {
            "name" : "Scene",
            "nodes" : [
                6
            ]
        }
    ],
    "nodes" : [
        {
            "mesh" : 0,
            "name" : "body",
            "translation" : [
                0,
                0.20000000298023224,
                -0.10000000149011612
            ]
        },
        {
            "mesh" : 1,
            "name" : "wheel_backLeft",
            "scale" : [
                -1,
                1,
                1
            ],
            "translation" : [
                -0.3499999940395355,
                0.30000001192092896,
                0.7599999904632568
            ]
        },
        {
            "mesh" : 1,
            "name" : "wheel_backRight",
            "translation" : [
                0.3499999940395355,
                0.30000001192092896,
                0.7599999904632568
            ]
        },
        {
            "mesh" : 1,
            "name" : "wheel_frontLeft",
            "scale" : [
                -1,
                1,
                1
            ],
            "translation" : [
                -0.3499999940395355,
                0.30000001192092896,
                -0.7599999904632568
            ]
        },
        {
            "mesh" : 1,
            "name" : "wheel_frontRight",
            "translation" : [
                0.3499999940395355,
                0.30000001192092896,
                -0.7599999904632568
            ]
        },
        {
            "children" : [
                0,
                1,
                2,
                3,
                4
            ],
            "name" : "van"
        },
        {
            "children" : [
                5
            ],
            "name" : "tmpParent",
            "rotation" : [
                0,
                -1,
                0,
                4.371138828673793e-08
            ],
            "scale" : [
                1.2000000476837158,
                1.2000000476837158,
                1.2000000476837158
            ]
        }
    ],
    "materials" : [
        {
            "name" : "plastic",
            "pbrMetallicRoughness" : {
                "baseColorFactor" : [
                    0.08353149890899658,
                    0.08353149890899658,
                    0.08353149890899658,
                    1
                ],
                "metallicFactor" : 0
            }
        },
        {
            "name" : "paintBlue",
            "pbrMetallicRoughness" : {
                "baseColorFactor" : [
                    0.05744917690753937,
                    0.06574492901563644,
                    0.11068878322839737,
                    1
                ],
                "metallicFactor" : 0
            }
        },
        {
            "emissiveFactor" : [
                1,
                1,
                1
            ],
            "extensions" : {
                "KHR_materials_transmission" : {
                    "transmissionFactor" : 1
                }
            },
            "name" : "lightFront",
            "pbrMetallicRoughness" : {
                "baseColorFactor" : [
                    1,
                    0.9762833118438721,
                    0.9292452931404114,
                    1
                ],
                "metallicFactor" : 0
            }
        },
        {
            "name" : "_defaultMat",
            "pbrMetallicRoughness" : {
                "baseColorFactor" : [
                    0.2882961630821228,
                    0.2882961630821228,
                    0.2882961630821228,
                    1
                ],
                "roughnessFactor" : 0.6029411554336548
            }
        },
        {
            "emissiveFactor" : [
                1,
                0.34670406579971313,
                0.22696588933467865
            ],
            "name" : "lightBack",
            "pbrMetallicRoughness" : {
                "baseColorFactor" : [
                    1,
                    0.3490196168422699,
                    0.22745098173618317,
                    1
                ],
                "metallicFactor" : 0
            }
        },
        {
            "name" : "window",
            "pbrMetallicRoughness" : {
                "baseColorFactor" : [
                    0.3532009422779083,
                    0.8066426515579224,
                    0.9372550845146179,
                    1
                ],
                "metallicFactor" : 0,
                "roughnessFactor" : 0
            }
        },
        {
            "name" : "carTire",
            "pbrMetallicRoughness" : {
                "baseColorFactor" : [
                    0.239215686917305,
                    0.239215686917305,
                    0.239215686917305,
                    1
                ]
            }
        }
    ],
    "meshes" : [
        {
            "name" : "Mesh body",
            "primitives" : [
                {
                    "attributes" : {
                        "POSITION" : 0,
                        "NORMAL" : 1,
                        "TEXCOORD_0" : 2
                    },
                    "indices" : 3,
                    "material" : 0
                },
                {
                    "attributes" : {
                        "POSITION" : 4,
                        "NORMAL" : 5,
                        "TEXCOORD_0" : 6
                    },
                    "indices" : 7,
                    "material" : 1
                },
                {
                    "attributes" : {
                        "POSITION" : 8,
                        "NORMAL" : 9,
                        "TEXCOORD_0" : 10
                    },
                    "indices" : 11,
                    "material" : 2
                },
                {
                    "attributes" : {
                        "POSITION" : 12,
                        "NORMAL" : 13,
                        "TEXCOORD_0" : 14
                    },
                    "indices" : 15,
                    "material" : 3
                },
                {
                    "attributes" : {
                        "POSITION" : 16,
                        "NORMAL" : 17,
                        "TEXCOORD_0" : 18
                    },
                    "indices" : 19,
                    "material" : 4
                },
                {
                    "attributes" : {
                        "POSITION" : 20,
                        "NORMAL" : 21,
                        "TEXCOORD_0" : 22
                    },
                    "indices" : 23,
                    "material" : 5
                }
            ]
        },
        {
            "name" : "Mesh wheel_frontLeft",
            "primitives" : [
                {
                    "attributes" : {
                        "POSITION" : 24,
                        "NORMAL" : 25,
                        "TEXCOORD_0" : 26
                    },
                    "indices" : 27,
                    "material" : 6
                },
                {
                    "attributes" : {
                        "POSITION" : 28,
                        "NORMAL" : 29,
                        "TEXCOORD_0" : 30
                    },
                    "indices" : 31,
                    "material" : 3
                }
            ]
        }
    ],
    "accessors" : [
        {
            "bufferView" : 0,
            "componentType" : 5126,
            "count" : 1435,
            "max" : [
                0.6499999761581421,
                0.4899999797344208,
                1.4499999284744263
            ],
            "min" : [
                -0.6499999761581421,
                0,
                -1.25
            ],
            "type" : "VEC3"
        },
        {
            "bufferView" : 1,
            "componentType" : 5126,
            "count" : 1435,
            "type" : "VEC3"
        },
        {
            "bufferView" : 2,
            "componentType" : 5126,
            "count" : 1435,
            "type" : "VEC2"
        },
        {
            "bufferView" : 3,
            "componentType" : 5123,
            "count" : 1944,
            "type" : "SCALAR"
        },
        {
            "bufferView" : 4,
            "componentType" : 5126,
            "count" : 314,
            "max" : [
                0.75,
                1.100000023841858,
                1.4499999284744263
            ],
            "min" : [
                -0.75,
                0.30000001192092896,
                -1.149999976158142
            ],
            "type" : "VEC3"
        },
        {
            "bufferView" : 5,
            "componentType" : 5126,
            "count" : 314,
            "type" : "VEC3"
        },
        {
            "bufferView" : 6,
            "componentType" : 5126,
            "count" : 314,
            "type" : "VEC2"
        },
        {
            "bufferView" : 7,
            "componentType" : 5123,
            "count" : 390,
            "type" : "SCALAR"
        },
        {
            "bufferView" : 8,
            "componentType" : 5126,
            "count" : 12,
            "max" : [
                0.550000011920929,
                0.5,
                -1.149999976158142
            ],
            "min" : [
                -0.550000011920929,
                0.4000000059604645,
                -1.149999976158142
            ],
            "type" : "VEC3"
        },
        {
            "bufferView" : 9,
            "componentType" : 5126,
            "count" : 12,
            "type" : "VEC3"
        },
        {
            "bufferView" : 10,
            "componentType" : 5126,
            "count" : 12,
            "type" : "VEC2"
        },
        {
            "bufferView" : 11,
            "componentType" : 5123,
            "count" : 12,
            "type" : "SCALAR"
        },
        {
            "bufferView" : 12,
            "componentType" : 5126,
            "count" : 18,
            "max" : [
                0.75,
                0.699999988079071,
                -0.4229022264480591
            ],
            "min" : [
                -0.75,
                0.5,
                -0.4229022264480591
            ],
            "type" : "VEC3"
        },
        {
            "bufferView" : 13,
            "componentType" : 5126,
            "count" : 18,
            "type" : "VEC3"
        },
        {
            "bufferView" : 14,
            "componentType" : 5126,
            "count" : 18,
            "type" : "VEC2"
        },
        {
            "bufferView" : 15,
            "componentType" : 5123,
            "count" : 18,
            "type" : "SCALAR"
        },
        {
            "bufferView" : 16,
            "componentType" : 5126,
            "count" : 12,
            "max" : [
                0.550000011920929,
                0.5,
                1.4499999284744263
            ],
            "min" : [
                -0.550000011920929,
                0.4000000059604645,
                1.4499999284744263
            ],
            "type" : "VEC3"
        },
        {
            "bufferView" : 17,
            "componentType" : 5126,
            "count" : 12,
            "type" : "VEC3"
        },
        {
            "bufferView" : 18,
            "componentType" : 5126,
            "count" : 12,
            "type" : "VEC2"
        },
        {
            "bufferView" : 19,
            "componentType" : 5123,
            "count" : 12,
            "type" : "SCALAR"
        },
        {
            "bufferView" : 20,
            "componentType" : 5126,
            "count" : 48,
            "max" : [
                0.550000011920929,
                1.0071523189544678,
                1.4128609895706177
            ],
            "min" : [
                -0.550000011920929,
                0.6000000238418579,
                -0.75
            ],
            "type" : "VEC3"
        },
        {
            "bufferView" : 21,
            "componentType" : 5126,
            "count" : 48,
            "type" : "VEC3"
        },
        {
            "bufferView" : 22,
            "componentType" : 5126,
            "count" : 48,
            "type" : "VEC2"
        },
        {
            "bufferView" : 23,
            "componentType" : 5123,
            "count" : 48,
            "type" : "SCALAR"
        },
        {
            "bufferView" : 24,
            "componentType" : 5126,
            "count" : 327,
            "max" : [
                0.30000001192092896,
                0.30000001192092896,
                0.30000001192092896
            ],
            "min" : [
                0,
                -0.30000001192092896,
                -0.30000001192092896
            ],
            "type" : "VEC3"
        },
        {
            "bufferView" : 25,
            "componentType" : 5126,
            "count" : 327,
            "type" : "VEC3"
        },
        {
            "bufferView" : 26,
            "componentType" : 5126,
            "count" : 327,
            "type" : "VEC2"
        },
        {
            "bufferView" : 27,
            "componentType" : 5123,
            "count" : 498,
            "type" : "SCALAR"
        },
        {
            "bufferView" : 28,
            "componentType" : 5126,
            "count" : 354,
            "max" : [
                0.30000001192092896,
                0.18136820197105408,
                0.18136820197105408
            ],
            "min" : [
                0.25,
                -0.18136820197105408,
                -0.18136820197105408
            ],
            "type" : "VEC3"
        },
        {
            "bufferView" : 29,
            "componentType" : 5126,
            "count" : 354,
            "type" : "VEC3"
        },
        {
            "bufferView" : 30,
            "componentType" : 5126,
            "count" : 354,
            "type" : "VEC2"
        },
        {
            "bufferView" : 31,
            "componentType" : 5123,
            "count" : 354,
            "type" : "SCALAR"
        }
    ],
    "bufferViews" : [
        {
            "buffer" : 0,
            "byteLength" : 17220,
            "byteOffset" : 0
        },
        {
            "buffer" : 0,
            "byteLength" : 17220,
            "byteOffset" : 17220
        },
        {
            "buffer" : 0,
            "byteLength" : 11480,
            "byteOffset" : 34440
        },
        {
            "buffer" : 0,
            "byteLength" : 3888,
            "byteOffset" : 45920
        },
        {
            "buffer" : 0,
            "byteLength" : 3768,
            "byteOffset" : 49808
        },
        {
            "buffer" : 0,
            "byteLength" : 3768,
            "byteOffset" : 53576
        },
        {
            "buffer" : 0,
            "byteLength" : 2512,
            "byteOffset" : 57344
        },
        {
            "buffer" : 0,
            "byteLength" : 780,
            "byteOffset" : 59856
        },
        {
            "buffer" : 0,
            "byteLength" : 144,
            "byteOffset" : 60636
        },
        {
            "buffer" : 0,
            "byteLength" : 144,
            "byteOffset" : 60780
        },
        {
            "buffer" : 0,
            "byteLength" : 96,
            "byteOffset" : 60924
        },
        {
            "buffer" : 0,
            "byteLength" : 24,
            "byteOffset" : 61020
        },
        {
            "buffer" : 0,
            "byteLength" : 216,
            "byteOffset" : 61044
        },
        {
            "buffer" : 0,
            "byteLength" : 216,
            "byteOffset" : 61260
        },
        {
            "buffer" : 0,
            "byteLength" : 144,
            "byteOffset" : 61476
        },
        {
            "buffer" : 0,
            "byteLength" : 36,
            "byteOffset" : 61620
        },
        {
            "buffer" : 0,
            "byteLength" : 144,
            "byteOffset" : 61656
        },
        {
            "buffer" : 0,
            "byteLength" : 144,
            "byteOffset" : 61800
        },
        {
            "buffer" : 0,
            "byteLength" : 96,
            "byteOffset" : 61944
        },
        {
            "buffer" : 0,
            "byteLength" : 24,
            "byteOffset" : 62040
        },
        {
            "buffer" : 0,
            "byteLength" : 576,
            "byteOffset" : 62064
        },
        {
            "buffer" : 0,
            "byteLength" : 576,
            "byteOffset" : 62640
        },
        {
            "buffer" : 0,
            "byteLength" : 384,
            "byteOffset" : 63216
        },
        {
            "buffer" : 0,
            "byteLength" : 96,
            "byteOffset" : 63600
        },
        {
            "buffer" : 0,
            "byteLength" : 3924,
            "byteOffset" : 63696
        },
        {
            "buffer" : 0,
            "byteLength" : 3924,
            "byteOffset" : 67620
        },
        {
            "buffer" : 0,
            "byteLength" : 2616,
            "byteOffset" : 71544
        },
        {
            "buffer" : 0,
            "byteLength" : 996,
            "byteOffset" : 74160
        },
        {
            "buffer" : 0,
            "byteLength" : 4248,
            "byteOffset" : 75156
        },
        {
            "buffer" : 0,
            "byteLength" : 4248,
            "byteOffset" : 79404
        },
        {
            "buffer" : 0,
            "byteLength" : 2832,
            "byteOffset" : 83652
        },
        {
            "buffer" : 0,
            "byteLength" : 708,
            "byteOffset" : 86484
        }
    ],
    "buffers" : [
        {
            "byteLength" : 87192,
            "uri" : "data:application/octet-stream;base64,"
        }
    ]
}
